<svg xmlns="http://www.w3.org/2000/svg" viewBox="0 0 176.99 109.98"><defs><style>.cls-1{fill:#fffbe3;}.cls-1,.cls-2{stroke:#000;stroke-miterlimit:10;}</style></defs><title>cowboyhat</title><g id="Layer_2" data-name="Layer 2"><g id="Layer_1-2" data-name="Layer 1"><path class="cls-1" d="M146.74,48.59l12.78-15a6.19,6.19,0,0,1,10.4,1.4c9.21,18.92,22,64.11-65.26,73.79l-23.55.73c-86.64-7-84.5-48.5-77.65-70.1a8.69,8.69,0,0,1,14.38-3.94L31,48"/><path d="M30.63,47.58l116.47,1S160,83.37,88.19,83.37C17.76,83.37,30.63,47.58,30.63,47.58Z"/><path class="cls-1" d="M100.9,4.86c8.69-6.4,18.78-4.45,24.75-2.32a9.41,9.41,0,0,1,6.07,7.23L139.49,53c.82,4.59-2.71,8.8-6.64,8.8H44c-4.6,0-7.56-3.45-7-7.27l7-45.68a8.3,8.3,0,0,1,5.27-6.52c4-1.49,10.4-2.7,19.36-.51A37.29,37.29,0,0,1,80,6.79C83.61,9.15,91.18,12,100.9,4.86Z"/><polygon class="cls-2" points="94.49 51.33 87.23 47.27 79.78 50.95 81.39 42.79 75.59 36.84 83.85 35.85 87.72 28.49 91.2 36.04 99.4 37.45 93.3 43.1 94.49 51.33"/><path class="cls-1" d="M39,60.06s43,28.92,98.42,0"/></g></g></svg>