<svg xmlns="http://www.w3.org/2000/svg" viewBox="0 0 232.5 93.14"><defs><style>.cls-1{fill:#fff;stroke:#000;}.cls-1,.cls-3{stroke-miterlimit:10;}.cls-2{font-size:33.33px;font-family:LaoMN, Lao MN;}.cls-3{fill:#ead7f4;stroke:#2b6d2b;}</style></defs><title>diploma</title><g id="Layer_2" data-name="Layer 2"><g id="Layer_1-2" data-name="Layer 1"><path class="cls-1" d="M32.14,88.9l194-45.38a6,6,0,0,0,4.59-3.76c1.94-6.62,4.28-23.25-14.86-37.23a8.4,8.4,0,0,0-6.52-1.19L13,43.65"/><ellipse class="cls-1" cx="21.5" cy="67.14" rx="21" ry="25.5"/><text class="cls-2" transform="matrix(0.79, -0.18, 0.22, 0.98, 63.48, 68.85)">D</text><text class="cls-2" transform="translate(87.38 63.53) rotate(-12.55) scale(0.81 1)">I</text><text class="cls-2" transform="translate(98.03 61.16) rotate(-12.55) scale(0.81 1)">P</text><text class="cls-2" transform="translate(116.19 57.12) rotate(-12.55) scale(0.81 1)">L</text><text class="cls-2" transform="translate(133.84 53.19) rotate(-12.55) scale(0.81 1)">O</text><text class="cls-2" transform="matrix(0.79, -0.18, 0.22, 0.98, 159.64, 47.45)">M</text><text class="cls-2" transform="matrix(0.79, -0.18, 0.22, 0.98, 187.31, 41.29)">A</text><path class="cls-3" d="M114.5,20.78s17.29,17.79,9.89,47.36L140.5,64.5s4.42-26.75-12-46.86Z"/></g></g></svg>