<svg xmlns="http://www.w3.org/2000/svg" viewBox="0 0 115.28 84.54"><defs><style>.cls-1{fill:#d1b36f;}.cls-1,.cls-2,.cls-3{stroke:#000;stroke-miterlimit:10;}.cls-2{fill:none;}.cls-3{fill:#fff;}</style></defs><title>film</title><g id="Layer_2" data-name="Layer 2"><g id="Layer_1-2" data-name="Layer 1"><path class="cls-1" d="M63.87,15h.45m-2,0h1.58M62.33,74.16H6.14c-2.81,0-4.45-.89-5.41-2.91a2.54,2.54,0,0,0-.23-.34V20.32a5.19,5.19,0,0,1,4.28-5.16A14.18,14.18,0,0,1,7.12,15q27.58.09,55.17,0M52.14,18.2v6.38h8.12V18.2Zm-33,46.42h-8.3c0,2,0,3.94,0,5.87,0,.17.35.48.54.48,2.56,0,5.12,0,7.73,0Zm12.44,0v6.33H39.8V64.59ZM19.16,18.16c-2.58,0-5.11,0-7.63,0-.21,0-.61.27-.61.42-.05,1.92,0,3.85,0,5.81h8.27Zm20.66,6.27V18.16c-2.6,0-5.12,0-7.64,0-.21,0-.59.28-.6.44,0,1.93,0,3.85,0,5.81Zm12.32,46.5h8.12V64.6H52.14Z"/><path class="cls-2" d="M52.14,18.2h8.12v6.38H52.14Z"/><path class="cls-2" d="M19.18,64.62V71c-2.61,0-5.17,0-7.73,0-.19,0-.54-.31-.54-.48,0-1.93,0-3.87,0-5.87Z"/><path class="cls-2" d="M31.62,64.59H39.8v6.33H31.62Z"/><path class="cls-2" d="M19.16,18.16v6.25H10.89c0-2,0-3.89,0-5.81,0-.15.4-.42.61-.42C14.05,18.15,16.58,18.16,19.16,18.16Z"/><path class="cls-2" d="M39.82,24.43H31.56c0-2,0-3.88,0-5.81,0-.16.39-.44.6-.44,2.52,0,5,0,7.64,0Z"/><path class="cls-2" d="M52.14,70.93V64.6h8.12v6.33Z"/><ellipse class="cls-3" cx="88.77" cy="13.5" rx="26" ry="13"/><path class="cls-1" d="M62.78,15,61.63,74.26s26,22,52.64,0l.5-59.76A55.93,55.93,0,0,1,73,19.05,64.91,64.91,0,0,1,62.77,15.5"/><ellipse class="cls-3" cx="88.3" cy="11" rx="4.26" ry="2.5"/></g></g></svg>