<svg xmlns="http://www.w3.org/2000/svg" viewBox="0 0 257.5 57"><defs><style>.cls-1{fill:#faff8d;}.cls-2{fill:#f4eed0;}.cls-3{fill:#ffbdd1;}.cls-3,.cls-4,.cls-5{stroke:#000;stroke-miterlimit:10;}.cls-5{fill:none;}</style></defs><title>pencil</title><g id="Layer_2" data-name="Layer 2"><g id="Layer_1-2" data-name="Layer 1"><rect class="cls-1" x="29.93" y="1.5" width="174.34" height="54"/><path class="cls-2" d="M203.38,56,254.5,32.67c3.31-1.51,3.31-6.83,0-8.34L203.38,1"/><rect class="cls-3" x="0.5" y="0.5" width="30.32" height="56" rx="6.22" ry="6.22"/><path class="cls-4" d="M243.7,20.52s-6.5,9.1,0,16.54c0,0,13.83-2.54,13.28-8S243.7,20.52,243.7,20.52Z"/><path class="cls-5" d="M29.93,55.5H202.65a1.2,1.2,0,0,0,.76-2l-12.22-14a1.26,1.26,0,0,1,.16-1.8l12.45-9.36a1.27,1.27,0,0,0,0-2l-12.06-8.27a2.36,2.36,0,0,1-.24-3.56L203,3.58a1.2,1.2,0,0,0-.69-2.08H29.93"/><path class="cls-2" d="M205.47,16c1.72,0,1.73-3,0-3s-1.72,3,0,3Z"/><path class="cls-2" d="M205.47,16c1.72,0,1.73-3,0-3s-1.72,3,0,3Z"/><path class="cls-2" d="M205.47,16c1.72,0,1.73-3,0-3s-1.72,3,0,3Z"/><path class="cls-2" d="M205.47,16c1.72,0,1.73-3,0-3s-1.72,3,0,3Z"/><path class="cls-2" d="M205.55,21.75c1.72,0,1.72-3,0-3s-1.72,3,0,3Z"/><path class="cls-2" d="M205.55,21.75c1.72,0,1.72-3,0-3s-1.72,3,0,3Z"/><path class="cls-2" d="M204,5.12l-9,8.65-2.67,2.56a2.21,2.21,0,0,1,1-.93"/><path class="cls-2" d="M203.08,4.06,191.39,15.27l1.89,2.12.74-.69c1.48-1,.14-3.57-1.35-2.59a4,4,0,0,0-1.28,1.16c-1.16,1.45.59,3.37,1.89,2.12L205,6.18c1.31-1.26-.59-3.37-1.89-2.12Z"/><path class="cls-2" d="M192.43,16.21,204,24.28"/><path class="cls-2" d="M191.75,17.51l11.6,8.06c1.47,1,2.81-1.57,1.35-2.59l-11.6-8.06c-1.47-1-2.81,1.57-1.35,2.59Z"/><path class="cls-2" d="M196.22,15.55a11.21,11.21,0,0,1,7.27,5.6,7.19,7.19,0,0,0-3.86-2.69A4.47,4.47,0,0,1,198.3,18a1.34,1.34,0,0,1-.65-1.27,1.91,1.91,0,0,1,.66-1l4.95-4.66a18.29,18.29,0,0,1-5.33,3.4l2.52-2a11,11,0,0,0,2-1.87,4.22,4.22,0,0,0,.92-2.67c-.49,1.06-1.6,1.51-2.53,2.09a16.46,16.46,0,0,0-3.38,3.15l-2.27,2.55L203,17a.82.82,0,0,0,.75-.13,1,1,0,0,0,.2-.55l.64-3.64-2.36,5.7,2.24-7.21L202,15.32V14.7"/><path class="cls-2" d="M195.87,17a10.22,10.22,0,0,1,6.46,4.91l2.1-1.82c-1.34-1.65-2.74-2.15-4.45-3.08-.09-.05-.7-.08-.72-.22s1.26-1.19,1.41-1.34l3.53-3.33A1.42,1.42,0,0,0,202.31,10a18.15,18.15,0,0,1-4.74,3l1,2.74c2.61-2,5.86-3.87,6.11-7.82a1.33,1.33,0,0,0-2.5-.76c-.87,1.39-2.91,2.08-4.1,3.23-1.36,1.32-2.59,2.83-3.86,4.26-.65.72-.45,2.33.59,2.5l4.74.79c1.14.18,2.62.74,3.78.58,2.24-.32,2.14-3.51,2.48-5.45.27-1.55-1.77-2.8-2.45-1.16L201,17.63l2.45,1.16,2.24-7.22a1.36,1.36,0,0,0-2.45-1.15l-2.39,4.14,2.49.76V14.7a1.34,1.34,0,1,0-2.68,0v.62a1.33,1.33,0,0,0,2.49.76l2.39-4.15-2.44-1.15L200.9,18c-.49,1.59,1.8,2.7,2.44,1.16l2.36-5.7-2.44-1.16a24.29,24.29,0,0,1-.84,4.19l.93-1.05c-.91.41-3-.36-3.92-.51l-3.88-.64.59,2.51a36.62,36.62,0,0,1,4.75-5c1.35-1,2.66-1.52,3.63-3.07L202,7.94c-.15,2.43-3.2,4-4.78,5.23-1.14.9-.48,3.4,1,2.74a22.42,22.42,0,0,0,5.92-3.79L202.31,10c-1.53,1.44-3.09,2.85-4.59,4.33a3.38,3.38,0,0,0-1.36,2.79,2.85,2.85,0,0,0,1.58,2.33c1.73,1,3.17,1,4.6,2.76,1,1.25,3-.39,2.1-1.82a13,13,0,0,0-8.06-6.29c-1.68-.42-2.4,2.47-.71,2.9Z"/><path class="cls-2" d="M192.83,18c1.72,0,1.72-3,0-3s-1.72,3,0,3Z"/><path class="cls-2" d="M192.48,16.36l.38.14"/><path class="cls-2" d="M192.12,17.81l.38.13a1.34,1.34,0,0,0,1.65-1.05,1.56,1.56,0,0,0-.93-1.84l-.39-.13a1.33,1.33,0,0,0-1.64,1,1.56,1.56,0,0,0,.93,1.85Z"/><path class="cls-2" d="M204.34,41.12c1.73,0,1.73-3,0-3s-1.72,3,0,3Z"/><path class="cls-2" d="M203.77,30.84l-11,8.09"/><path class="cls-2" d="M203.09,29.54l-11,8.09c-1.43,1.06-.09,3.66,1.35,2.59l11-8.09c1.44-1.05.1-3.65-1.35-2.59Z"/><path class="cls-2" d="M192.68,38.76l11.38,12.69"/><path class="cls-2" d="M191.74,39.82l11.38,12.69c1.22,1.37,3.11-.76,1.89-2.12L193.63,37.7c-1.22-1.36-3.12.76-1.89,2.12Z"/><path class="cls-2" d="M196,39.72l7.9-3.58-5.83.33A20,20,0,0,0,202.93,33l.25,9.57-1.93-1.26a13.72,13.72,0,0,0-3.14-1.66,4.17,4.17,0,0,1-1-.4,1.19,1.19,0,0,1-.59-.94.64.64,0,0,1,.47-.7c.26,0,.48.18.68.37a12.28,12.28,0,0,0,4.65,2.89l-.5-2.67a13.12,13.12,0,0,0,.25,5.18,38.14,38.14,0,0,0,1.59,4.92c-2-3.28-4.14-6.65-7.14-8.81"/><path class="cls-2" d="M196.4,41.17l7.89-3.58c1.28-.58,1.28-3-.35-3l-5.83.33.68,2.8a25.45,25.45,0,0,0,5.09-3.72L201.59,33l.25,9.57,2-1.3c-1.31-.85-4.06-3.39-5.64-3.15-.44.07-.87,1.18-.67,1.67s1,.76,1.25.95A16.09,16.09,0,0,0,202,42.31c1,.39,1.84-.81,1.65-1.85l-.5-2.67a1.31,1.31,0,0,0-2.58,0c-.48,3.93.5,7.29,1.84,10.89l2.45-1.15c-2.2-3.53-4.43-6.88-7.63-9.34-1.42-1.1-2.76,1.5-1.35,2.59,2.8,2.15,4.75,5.18,6.67,8.26a1.35,1.35,0,0,0,2.44-1.15c-1.11-3-2.24-6-1.84-9.3h-2.58l.5,2.67,1.64-1.85a17.63,17.63,0,0,1-4.06-2.5c-.44-.31-.72-.67-1.27-.76a1.9,1.9,0,0,0-2.11,1.75,2.76,2.76,0,0,0,1.52,2.79c1.84,1.16,3.9,2,5.76,3.16a1.36,1.36,0,0,0,2-1.29L204.27,33A1.34,1.34,0,0,0,202,31.93a22.33,22.33,0,0,1-4.54,3.25c-1.19.65-.62,2.87.67,2.79l5.83-.33-.36-2.94-7.89,3.57c-1.58.72-.89,3.62.71,2.9Z"/><line class="cls-5" x1="30.26" y1="55.97" x2="30.26" y2="53"/><polyline class="cls-5" points="30.27 3.69 30.27 1 30.27 4.24"/><line class="cls-5" x1="190.78" y1="16.21" x2="30.82" y2="16.21"/><line class="cls-5" x1="190.53" y1="38.49" x2="30.82" y2="38.49"/><path class="cls-1" d="M202.76,27.1a.48.48,0,0,0,.21.27c.18.08.18-.08,0,0-.36.25,0,.9.34.64a.87.87,0,0,0,.45-.72.59.59,0,0,0-.13-.39c-.06-.09-.28-.14-.32-.22-.2-.42-.78,0-.57.38Z"/></g></g></svg>