<svg xmlns="http://www.w3.org/2000/svg" viewBox="0 0 117.45 160.5"><defs><style>.cls-1{fill:#faff8d;}.cls-1,.cls-2,.cls-3{stroke:#000;stroke-miterlimit:10;}.cls-2{fill:#ff5b00;}.cls-3{fill:#ffccf5;}</style></defs><title>snack</title><g id="Layer_2" data-name="Layer 2"><g id="Layer_1-2" data-name="Layer 1"><polygon class="cls-1" points="21.64 90 0.64 14.5 14.64 12.83 33.78 90 21.64 90"/><polygon class="cls-1" points="33.64 87.61 18.64 19.66 30.64 18.83 41.64 86.77 33.64 87.61"/><polygon class="cls-1" points="86.95 98.66 79.27 29.86 91.31 29.93 95.01 98.43 86.95 98.66"/><polygon class="cls-1" points="41.64 96.97 29.64 0.5 42.64 0.5 47.45 91.21 55.78 91.68 41.64 96.97"/><polygon class="cls-1" points="46.09 105.52 41.64 32 53.64 32 53.64 106.66 46.09 105.52"/><polygon class="cls-1" points="61.72 95.17 62.64 4.54 74.63 4.91 70.64 97.12 61.72 95.17"/><polygon class="cls-1" points="90.65 94.45 95.64 11.4 106.64 10.57 98.64 96.97 90.65 94.45"/><polygon class="cls-1" points="101.98 98.7 103.71 41.89 110.64 40.78 109.8 96.04 101.98 98.7"/><polygon class="cls-1" points="46.92 11.1 57.52 99.61 68.5 98.94 57.75 8.76 46.92 11.1"/><polygon class="cls-1" points="72.64 96 72.64 18.83 80.64 17.99 82.64 94.32 72.64 96"/><path class="cls-2" d="M8.64,69l19,91h67l22-91S65.64,107,8.64,69Z"/><ellipse class="cls-3" cx="60.88" cy="116.5" rx="15.25" ry="16.5"/></g></g></svg>