<svg xmlns="http://www.w3.org/2000/svg" viewBox="0 0 162.5 97.29"><defs><style>.cls-1{fill:none;}.cls-2{fill:#bb8f8f;}.cls-2,.cls-3,.cls-4,.cls-5,.cls-6,.cls-7{stroke:#000;stroke-miterlimit:10;}.cls-3{fill:#ffccf5;}.cls-4{fill:lime;}.cls-5{fill:#ff5b00;}.cls-6{fill:#fbef4e;}.cls-7{fill:#d2eeff;}</style></defs><g id="Layer_2" data-name="Layer 2"><g id="Layer_1-2" data-name="Layer 1"><path class="cls-1" d="M108,45.1c0-9.26-12.56-16.81-28.13-16.88S51.66,35.61,51.62,44.87,64.17,61.68,79.75,61.74a46,46,0,0,0,4.88-.23A56.73,56.73,0,0,0,95.42,59C103,56,108,50.91,108,45.1Z"/><path class="cls-2" d="M162,49.13C162.09,26.21,135.12,6.94,99,2a129.38,129.38,0,0,1,20.74,5.28C98.76,6.56,94,29.88,94,29.88a40,40,0,0,0-16.53-2c3.72-11.27-1.19-25.51-1.71-27C33.81,2.48.61,23.1.5,48.46.46,58.6,5.72,68,14.7,75.79c-19-17.6-12.17-35.31-12.17-35.31,17.41-9,49,4.2,49,4.2L52,49.3c-19.13,5.25-31.2,28-32.37,30.33,8.43,5.94,19.21,10.64,31.5,13.62C51.2,93,55.43,73,71.4,61c0,0,4.8,1.62,13.23.55a46,46,0,0,1-4.88.23c-15.58-.06-28.17-7.62-28.13-16.87S64.31,28.16,79.89,28.22,108.05,35.84,108,45.1C108,50.91,103,56,95.42,59h0s15,10.42,18.89,33.69C142.36,85.25,161.92,68.59,162,49.13ZM52.39,39.73c-7.85-11.17-34-21-34-21,14.35-11.14,35.71-15,35.71-15-3.88,14.8,2.88,31,2.88,31Zm54.8,9.37a9.58,9.58,0,0,0,.84-7.61c30.09-21.8,50.51-5.1,50.51-5.1,10.41,21.81-9.67,37.85-9.67,37.85C142.92,55.86,107.19,49.1,107.19,49.1Z"/><path class="cls-2" d="M64.33,95.68a133.75,133.75,0,0,0,16.72,1.11,128.6,128.6,0,0,0,32.74-4C110.15,93.65,87.8,98.45,64.33,95.68Z"/><path class="cls-3" d="M158.54,36.39s-20.42-16.7-50.51,5.1a9.58,9.58,0,0,1-.84,7.61s35.73,6.76,41.68,25.14C148.87,74.24,169,58.2,158.54,36.39Z"/><path class="cls-4" d="M99,2A91.9,91.9,0,0,0,75.7.78l0,.13c1.88-.07,3.78-.11,5.7-.1A133.13,133.13,0,0,1,99,2Z"/><path class="cls-4" d="M77.46,27.89a40,40,0,0,1,16.53,2S98.76,6.56,119.72,7.31A129.38,129.38,0,0,0,99,2,133.13,133.13,0,0,0,81.45.81c-1.92,0-3.82,0-5.7.1C76.27,2.38,81.18,16.62,77.46,27.89Z"/><path class="cls-5" d="M54.14,3.67s-21.36,3.89-35.71,15c0,0,26.11,9.86,34,21L57,34.66S50.26,18.47,54.14,3.67Z"/><path class="cls-6" d="M19.53,79.84l.1-.21Q17,77.79,14.7,75.79C16.16,77.14,17.75,78.49,19.53,79.84Z"/><path class="cls-6" d="M52,49.3l-.48-4.62s-31.58-13.22-49-4.2c0,0-6.82,17.71,12.17,35.31q2.31,2,4.93,3.84C20.8,77.34,32.87,54.55,52,49.3Z"/><path class="cls-7" d="M114.33,92.68h0l-.54.14Z"/><path class="cls-7" d="M51.13,93.26a97.4,97.4,0,0,0,13.2,2.42,122.91,122.91,0,0,1-13.2-2.43Z"/><path class="cls-7" d="M84.63,61.51A40.92,40.92,0,0,0,95.42,59,56.73,56.73,0,0,1,84.63,61.51Z"/><path class="cls-7" d="M95.44,59h0a40.92,40.92,0,0,1-10.79,2.52C76.2,62.58,71.4,61,71.4,61c-16,12-20.2,32-20.27,32.29a122.91,122.91,0,0,0,13.2,2.43c23.47,2.77,45.82-2,49.46-2.87l.54-.14C110.43,69.4,95.44,59,95.44,59Z"/></g></g></svg>