<svg xmlns="http://www.w3.org/2000/svg" viewBox="0 0 162.5 97.3"><defs><style>.cls-1{fill:#d2eeff;}.cls-1,.cls-2,.cls-3,.cls-4,.cls-5,.cls-6,.cls-7{stroke:#000;stroke-miterlimit:10;}.cls-2{fill:#fff;}.cls-3{fill:#ffccf5;}.cls-4{fill:#2fd398;}.cls-5{fill:#3146dd;}.cls-6{fill:#faff8d;}.cls-7{fill:#ff5b00;}</style></defs><title>tube</title><g id="Layer_2" data-name="Layer 2"><g id="Layer_1-2" data-name="Layer 1"><ellipse class="cls-1" cx="81.25" cy="48.8" rx="80.75" ry="47.99"/><ellipse class="cls-2" cx="79.8" cy="44.99" rx="28.2" ry="16.76"/><path class="cls-3" d="M107.19,49S143,55.61,149,74c0,0,20-16.12,9.52-37.89,0,0-20.49-16.61-50.49,5.31A9.59,9.59,0,0,1,107.19,49Z"/><path class="cls-4" d="M93.91,29.84S98.59,6.49,119.54,7.15c0,0-23-8.34-44-6.34,0,0,5.75,15.19,1.88,27.1A40,40,0,0,1,93.91,29.84Z"/><path class="cls-5" d="M57.07,34.6s-7-16.1-3.27-30.95c0,0-21.3,4.16-35.51,15.48,0,0,26.22,9.53,34.22,20.61Z"/><path class="cls-6" d="M51.5,44.81s-31.63-13.09-49-4c0,0-7.84,20.57,17.16,39.29,0,0,12.21-25.06,32.34-30.67Z"/><path class="cls-7" d="M71.46,61s9,3,24-2.08c0,0,15,10.36,19,33.62,0,0-33.38,8.42-63.2.84C51.31,93.39,55.41,73.2,71.46,61Z"/></g></g></svg>