<svg xmlns="http://www.w3.org/2000/svg" viewBox="0 0 250 149.46"><defs><style>.cls-1{fill:none;}.cls-2{fill:#fffbe3;}.cls-2,.cls-3,.cls-4,.cls-5,.cls-6,.cls-7{stroke:#000;stroke-miterlimit:10;}.cls-3{fill:#faff8d;}.cls-4{fill:lime;}.cls-5{fill:#ff5b00;}.cls-6{fill:#ffccf5;}.cls-7{fill:#d2eeff;}</style></defs><g id="Layer_2" data-name="Layer 2"><g id="Layer_1-2" data-name="Layer 1"><path class="cls-1" d="M166.27,69.27c.06-14.28-19.36-25.93-43.37-26S79.37,54.63,79.32,68.9s19.35,25.92,43.36,26a71.18,71.18,0,0,0,7.94-.4,87.11,87.11,0,0,0,16.21-3.84C158.52,86.09,166.23,78.23,166.27,69.27Z"/><path class="cls-2" d="M151.89,2.78A201.71,201.71,0,0,1,184.31,11C152,9.84,144.65,45.8,144.65,45.8a61.91,61.91,0,0,0-25.49-3.08c5.75-17.41-1.88-39.45-2.65-41.6C51.84,3.54.66,35.34.5,74.45c-.06,15.71,8.12,30.31,22.11,42.34-29.55-27.2-19-54.65-19-54.65,26.84-13.9,75.52,6.48,75.52,6.48l.74,7.12C50.36,83.85,31.75,119.07,30,122.52c13,9.15,29.63,16.41,48.58,21,0-.07,6.47-31.12,31.26-49.8,0,0,7.54,2.57,20.8.8a71.18,71.18,0,0,1-7.94.4c-24-.1-43.42-11.74-43.36-26S98.89,43.15,122.9,43.25s43.43,11.74,43.37,26c0,9-7.75,16.82-19.44,21.41h0s23.13,16.07,29.13,52c0,0-37.41,9.27-76.89,4.66A206.48,206.48,0,0,0,124.69,149c68.76.29,124.64-32.61,124.81-73.48C249.65,40,207.84,10.25,151.89,2.78ZM80.51,61C68.4,43.77,28.15,28.57,28.15,28.57,50.28,11.39,83.2,5.39,83.2,5.39c-6,22.81,4.44,47.77,4.44,47.77Zm148.74,53.2C220.08,85.86,165,75.43,165,75.43c3.41-6.64,1.3-11.73,1.3-11.73,46.39-33.61,77.88-7.86,77.88-7.86C260.21,89.46,229.25,114.19,229.25,114.19Z"/><path class="cls-3" d="M244.17,55.84s-31.49-25.75-77.88,7.86c0,0,2.11,5.09-1.3,11.73,0,0,55.09,10.43,64.26,38.76C229.25,114.19,260.21,89.46,244.17,55.84Z"/><path class="cls-4" d="M151.89,2.78C141,1,128.49-.16,116.44.93l.07.19q4.36-.17,8.8-.15A208.53,208.53,0,0,1,151.89,2.78Z"/><path class="cls-4" d="M119.16,42.72a61.91,61.91,0,0,1,25.49,3.08S152,9.84,184.31,11a201.71,201.71,0,0,0-32.42-8.21A208.53,208.53,0,0,0,125.31,1q-4.44,0-8.8.15C117.28,3.27,124.91,25.31,119.16,42.72Z"/><path class="cls-5" d="M83.2,5.39s-32.92,6-55,23.18c0,0,40.25,15.2,52.36,32.42l7.13-7.83S77.22,28.2,83.2,5.39Z"/><path class="cls-6" d="M29.83,122.82l.15-.3c-2.6-1.83-5.06-3.75-7.37-5.73C24.8,118.81,27.19,120.82,29.83,122.82Z"/><path class="cls-6" d="M79.9,75.74l-.74-7.12S30.48,48.24,3.64,62.14c0,0-10.58,27.45,19,54.65,2.31,2,4.77,3.9,7.37,5.73C31.75,119.07,50.36,83.85,79.9,75.74Z"/><path class="cls-7" d="M78.56,143.52a154.11,154.11,0,0,0,20.55,3.77,191.8,191.8,0,0,1-20.55-3.77Z"/><path class="cls-7" d="M130.62,94.52a62.41,62.41,0,0,0,16.21-3.84A87.11,87.11,0,0,1,130.62,94.52Z"/><path class="cls-7" d="M176,142.63c-6-35.89-29.13-52-29.13-52h0a62.41,62.41,0,0,1-16.21,3.84c-13.26,1.77-20.8-.8-20.8-.8C85,112.4,78.57,143.45,78.56,143.52a191.8,191.8,0,0,0,20.55,3.77C138.59,151.9,176,142.63,176,142.63Z"/></g></g></svg>