<svg xmlns="http://www.w3.org/2000/svg" viewBox="0 0 162.5 97.29"><defs><style>.cls-1{fill:#ead8f3;}.cls-1,.cls-2,.cls-3,.cls-4,.cls-5,.cls-6,.cls-7{stroke:#000;stroke-miterlimit:10;}.cls-2{fill:#fff;}.cls-3{fill:#ffccf5;}.cls-4{fill:lime;}.cls-5{fill:#ff5b00;}.cls-6{fill:#fbef4e;}.cls-7{fill:#d2eeff;}</style></defs><g id="Layer_2" data-name="Layer 2"><g id="Layer_1-2" data-name="Layer 1"><ellipse class="cls-1" cx="81.25" cy="48.8" rx="47.99" ry="80.75" transform="translate(32.11 129.85) rotate(-89.76)"/><ellipse class="cls-2" cx="79.82" cy="44.98" rx="16.76" ry="28.2" transform="translate(34.5 124.61) rotate(-89.76)"/><path class="cls-3" d="M107.19,49.1s35.73,6.76,41.68,25.14c0,0,20.08-16,9.67-37.85,0,0-20.42-16.7-50.51,5.1A9.58,9.58,0,0,1,107.19,49.1Z"/><path class="cls-4" d="M94,29.88S98.76,6.56,119.72,7.31c0,0-23-8.44-44-6.53,0,0,5.69,15.22,1.76,27.11A40,40,0,0,1,94,29.88Z"/><path class="cls-5" d="M57,34.66s-6.76-16.19-2.88-31c0,0-21.36,3.89-35.71,15,0,0,26.11,9.86,34,21Z"/><path class="cls-6" d="M51.52,44.68s-31.58-13.22-49-4.2c0,0-7.92,20.54,17,39.36,0,0,12.32-25,32.47-30.54Z"/><path class="cls-7" d="M71.4,61s9,3.08,24-2c0,0,15,10.42,18.89,33.7,0,0-33.42,8.28-63.2.58C51.13,93.26,55.31,73.09,71.4,61Z"/></g></g></svg>